<svg id="Capa_1" fill="white" enable-background="new 0 0 512 512" height="512" viewBox="0 0 512 512" width="512" xmlns="http://www.w3.org/2000/svg"><g id="XMLID_892_"><path id="XMLID_938_" d="m437.02 74.98c-48.353-48.351-112.64-74.98-181.02-74.98s-132.667 26.629-181.02 74.98c-48.351 48.353-74.98 112.64-74.98 181.02s26.629 132.667 74.98 181.02c48.353 48.351 112.64 74.98 181.02 74.98s132.667-26.629 181.02-74.98c48.351-48.353 74.98-112.64 74.98-181.02s-26.629-132.667-74.98-181.02zm-181.02 407.02c-124.617 0-226-101.383-226-226s101.383-226 226-226 226 101.383 226 226-101.383 226-226 226z"/><path id="XMLID_947_" d="m433.696 311.303c-4.899-17.378-17.149-31.604-33.608-39.032l-91.419-41.251c-.37-.735-.751-1.464-1.151-2.181l24.11-159.842-13.198-3.324c-4.81-1.211-47.69-11.799-72.068-10.504-17.118.907-33.151 9.055-43.99 22.354-10.857 13.321-15.61 30.706-13.039 47.696l15.681 103.624c-.498.895-.977 1.801-1.429 2.724l-149.492 59.783 9.855 23.583c9.175 21.958 21.284 42.576 35.991 61.283 10.339 13.151 25.855 21.507 42.57 22.925 1.708.145 3.415.216 5.118.216 15.075 0 29.802-5.614 41.05-15.789l68.208-61.694 110.644 100.079 9.966-7.962c18.482-14.768 34.6-32.174 47.904-51.734 10.182-14.972 13.206-33.543 8.297-50.954zm-177.429-25.383c-15.79 0-28.636-12.846-28.636-28.636s12.846-28.637 28.636-28.637c15.791 0 28.636 12.847 28.636 28.637s-12.845 28.636-28.636 28.636zm-30.641-189.444c5.584-6.852 13.512-10.882 22.324-11.35 12.417-.651 34.455 3.281 49.911 6.59l-16.951 112.38c-7.498-3.488-15.844-5.449-24.643-5.449-8.804 0-17.155 1.963-24.656 5.455l-12.616-83.371c-1.327-8.766 1.028-17.38 6.631-24.255zm-57.073 264.843c-6.468 5.849-14.82 8.655-23.508 7.929-8.584-.729-16.227-4.839-21.522-11.573-12.022-15.292-22.084-32.024-29.956-49.802l104.714-41.875c2.706 18.083 13.704 33.48 28.984 42.215zm232.04-15.935c-9.231 13.573-20.014 25.958-32.151 36.941l-82.417-74.546c14.768-8.736 25.396-23.754 28.163-41.356l73.562 33.193c8.361 3.772 14.584 10.999 17.073 19.827 2.497 8.862.956 18.316-4.23 25.941z"/><path id="XMLID_954_" d="m172.917 178.678-20.514-21.891c-21.746 20.379-36.024 46.575-41.291 75.757l29.523 5.328c4.113-22.788 15.276-43.258 32.282-59.194z"/><path id="XMLID_955_" d="m222.588 389.671-8.701 28.711c13.173 3.992 26.621 5.983 40.032 5.983 15.626 0 31.203-2.705 46.22-8.103l-10.148-28.232c-21.789 7.833-45.096 8.401-67.403 1.641z"/><path id="XMLID_956_" d="m378.16 238.85 29.215-6.82c-6.775-29.021-22.323-54.484-44.962-73.637l-19.375 22.904c17.679 14.956 29.824 34.857 35.122 57.553z"/></g></svg>